PathFileType	4	(X/Y/Z)	Kaydara																																																																																																																									
DataRate	CameraRate	NumFrames	NumMarkers	Units	OrigDataRate	OrigDataStartFrame	OrigNumFrames																																																																																																																					
30	30	4	41	mm	30	66	141																																																																																																																					
Frame#	Time	SALE_LFHD			SALE_RFHD			SALE_LBHD			SALE_RBHD			SALE_LFTShould			SALE_RFTShould			SALE_LRRShould			SALE_RRRShould			SALE_T10			SALE_STRN			SALE_TRUN			SALE_LSHO			SALE_LUPA			SALE_LELB			SALE_LFRM			SALE_LWRA			SALE_LWRB			SALE_LFIN			SALE_RSHO			SALE_RUPA			SALE_RELB			SALE_RFRM			SALE_RWRB			SALE_RFIN			SALE_LFWT			SALE_RFWT			SALE_LBWT			SALE_RBWT			SALE_LTHI			SALE_LKNE			SALE_RWRA			SALE_LSHN			SALE_LANK			SALE_LHEE			SALE_LTOE			SALE_RTHI			SALE_RKNE			SALE_RSHN			SALE_RANK			SALE_RHEE			SALE_RTOE		
		X1	Y1	Z1	X2	Y2	Z2	X3	Y3	Z3	X4	Y4	Z4	X5	Y5	Z5	X6	Y6	Z6	X7	Y7	Z7	X8	Y8	Z8	X9	Y9	Z9	X10	Y10	Z10	X11	Y11	Z11	X12	Y12	Z12	X13	Y13	Z13	X14	Y14	Z14	X15	Y15	Z15	X16	Y16	Z16	X17	Y17	Z17	X18	Y18	Z18	X19	Y19	Z19	X20	Y20	Z20	X21	Y21	Z21	X22	Y22	Z22	X23	Y23	Z23	X24	Y24	Z24	X25	Y25	Z25	X26	Y26	Z26	X27	Y27	Z27	X28	Y28	Z28	X29	Y29	Z29	X30	Y30	Z30	X31	Y31	Z31	X32	Y32	Z32	X33	Y33	Z33	X34	Y34	Z34	X35	Y35	Z35	X36	Y36	Z36	X37	Y37	Z37	X38	Y38	Z38	X39	Y39	Z39	X40	Y40	Z40	X41	Y41	Z41
																																																																																																																												
36	2.167	216.84982	1649.85733	-1977.8273	84.49828	1650.57617	-1983.00644	217.45411	1641.93848	-2114.08905	89.71341	1640.15991	-2111.59348	222.39	1398.93753	-2021.80389	84.03845	1397.95441	-2025.90546	219.13074	1441.931	-2143.35403	69.9039	1447.63962	-2138.80295	144.08653	1283.30734	-2191.02219	149.39866	1335.70129	-1966.16562	146.47249	1254.5211	-1915.00168	339.01886	1417.48199	-2095.20721	382.43202	1201.34758	-2092.60391	367.16434	1091.21849	-2101.61438	398.30563	988.03177	-2063.53088	338.3601	855.20248	-1988.24081	404.24095	845.09003	-2026.68762	401.53458	805.97923	-1974.60068	-22.49287	1421.21292	-2091.99921	-55.91663	1188.38013	-2136.63605	-85.92371	1091.42731	-2084.57809	-78.76132	977.74498	-2085.6221	-99.32981	843.40889	-2028.53607	-109.86767	808.97156	-1972.4263	280.10662	974.17862	-1979.21555	0.3265	970.79514	-2002.8038	233.69202	1049.2643	-2144.26071	57.57133	1051.81938	-2160.35706	289.23269	679.09912	-2156.45935	275.74158	509.51744	-2079.38385	-56.38247	860.53719	-1974.02924	270.4817	308.47734	-2090.48126	266.79796	125.85742	-2146.36505	226.9442	74.56038	-2211.85318	239.99359	89.92558	-2015.89539	6.17745	723.56445	-2161.82938	32.27391	567.99522	-2054.66858	82.17083	372.71664	-2071.31058	35.05943	124.49656	-2139.12827	47.57017	82.83759	-2023.14896	83.42637	63.64759	-2212.60941
37	2.2	215.28469	1649.34479	-1973.61893	82.77394	1650.64514	-1978.70911	215.73839	1640.63278	-2109.70978	88.02941	1639.49295	-2107.20535	219.59942	1398.00919	-2016.2558	81.05001	1397.16995	-2021.16669	217.29271	1441.15356	-2137.89749	67.89973	1446.75797	-2134.32327	142.49791	1282.29645	-2185.62469	146.23677	1335.05417	-1960.92834	142.99609	1253.85841	-1909.43268	336.71001	1416.33224	-2088.86475	380.31807	1200.51353	-2088.18359	365.40379	1090.41214	-2098.06061	396.87935	986.93954	-2060.92728	337.26528	853.29597	-1986.8692	403.21251	843.69926	-2025.44006	400.77534	804.14299	-1973.68454	-24.82727	1420.20782	-2088.18039	-56.97145	1187.40356	-2133.74191	-87.23358	1090.17197	-2082.13669	-79.79582	976.60568	-2083.56277	-100.20098	841.93436	-2027.16324	-111.01042	807.13531	-1971.15326	278.11279	973.25974	-1973.92975	-1.0972	969.71214	-1997.74872	232.28237	1049.68491	-2138.24417	56.17495	1052.26089	-2154.59473	289.69339	679.70398	-2153.9653	275.39999	509.35471	-2078.81668	-57.65796	859.25591	-1972.31308	270.47922	308.44727	-2090.39841	266.96087	125.90296	-2146.52786	227.07771	74.50044	-2211.97021	240.3474	89.95255	-2016.04645	4.43779	724.03603	-2159.05563	30.8625	567.53735	-2053.7851	81.22233	372.62318	-2071.31805	34.61992	124.50013	-2139.59717	47.3033	83.23368	-2023.6618	83.19694	63.41043	-2213.05939
38	2.233	212.95654	1648.86093	-1968.32916	80.50001	1650.96298	-1973.61435	213.57613	1639.58618	-2104.43436	85.85835	1639.11636	-2102.08466	216.5694	1397.67838	-2009.73785	78.0336	1396.64673	-2015.1088	214.75351	1440.64178	-2131.41495	65.38228	1445.96054	-2128.50449	140.33406	1281.4505	-2179.04892	142.84409	1334.88083	-1954.41895	139.54756	1253.84048	-1902.87201	333.94085	1416.03409	-2082.1022	377.75368	1200.45898	-2082.35168	363.09338	1090.34241	-2093.10654	395.08224	986.74477	-2057.61841	336.14788	851.76628	-1985.32867	402.11906	843.07816	-2024.3013	399.90376	802.68433	-1973.19138	-27.63112	1419.43192	-2082.89398	-58.67764	1186.98471	-2129.68857	-89.17123	1089.32358	-2078.87131	-81.62397	975.783	-2080.72098	-101.83617	840.73006	-2025.58548	-112.83167	805.34737	-1969.84863	276.06222	972.34825	-1968.17688	-3.39715	968.62389	-1992.33841	230.01642	1050.42747	-2131.58737	54.09209	1053.05832	-2148.0278	289.35816	679.93858	-2149.99069	273.52394	508.24875	-2077.45178	-59.77987	857.42294	-1970.24323	269.86717	308.35369	-2089.10461	266.84258	126.0497	-2146.37772	227.06488	74.48138	-2212.12143	240.70118	89.98049	-2016.22467	1.52006	724.61884	-2156.10214	29.26903	567.17899	-2051.92719	79.46539	372.93774	-2070.51544	34.00123	124.44814	-2139.94797	46.64559	83.61567	-2024.23553	82.94881	63.13244	-2213.43018
39	2.267	209.94589	1648.9975	-1962.07657	77.71029	1651.40396	-1967.58286	210.84318	1638.77319	-2098.12469	83.1258	1638.68713	-2096.02631	213.1184	1397.55402	-2001.85913	74.27618	1396.29669	-2008.00446	211.61915	1440.56824	-2123.89465	62.28763	1445.45685	-2121.17661	137.57566	1280.96634	-2171.28098	139.30058	1334.98108	-1946.39679	135.9602	1253.91678	-1894.78378	330.75573	1415.96802	-2073.83148	374.66228	1200.83092	-2076.01486	360.07603	1090.85098	-2087.49863	392.799	987.0977	-2053.81638	334.98428	850.61813	-1983.31879	400.66761	842.93365	-2022.93884	398.82862	801.47392	-1972.46552	-30.86269	1418.86017	-2075.85098	-61.24249	1186.90079	-2124.06418	-91.96313	1088.84422	-2074.11758	-84.36722	975.29312	-2077.10968	-104.50365	839.70245	-2023.55957	-115.48858	803.61427	-1968.17627	273.31266	971.83418	-1962.08817	-6.44528	967.76161	-1986.81946	227.14457	1050.9024	-2124.95422	51.487	1053.65395	-2141.60858	287.44589	679.91859	-2144.76593	271.49979	507.87064	-2072.86026	-62.62837	855.76019	-1967.95227	268.62001	307.97277	-2086.6713	266.44733	126.34087	-2145.99991	226.93424	74.52698	-2212.20505	240.78718	90.08984	-2016.38794	-1.67096	724.8288	-2152.70264	27.37598	566.74648	-2049.50943	78.09095	372.9105	-2068.38333	33.48817	124.34377	-2140.24719	46.07785	84.14508	-2024.80713	82.80011	62.89878	-2213.74527
